<?xml version="1.0" encoding="UTF-8"?>
<svg width="97.367mm" height="89.694mm" version="1.1" viewBox="0 0 97.367 89.694" xml:space="preserve" xmlns="http://www.w3.org/2000/svg"><g stroke-width=".9897"><path transform="scale(.26458)" d="m33.897 116.54c-6.3862-0.30399-7.1753-0.5579-7.1753-2.3088 0-6.7799 11.141-29.786 21.291-43.967 23.866-33.343 56.052-54.137 97.473-62.971 8.81-1.879 13.48-2.2199 30.681-2.2391 18.299-0.02046 21.512 0.23761 32.761 2.6313 46.821 9.9634 84.003 36.592 106.69 76.409 4.7095 8.2647 11.051 23.175 12.534 29.469l0.64115 2.7217h-33.596l-1.764-4.7011c-5.4233-14.453-13.895-27.489-25.237-38.834-18.672-18.675-42.74-30.596-71.236-35.283-12.479-2.0523-36.425-1.2981-48.792 1.5366-22.347 5.1222-42.722 16.461-59.585 33.159-9.9674 9.8698-16.264 18.328-21.794 29.277-2.337 4.6269-5.5348 9.631-7.1063 11.12-2.8892 2.7381-10.652 4.9268-16.026 4.5182-1.4226-0.10815-5.8155-0.35034-9.7619-0.53821z" fill="#eec043"/><path transform="scale(.26458)" d="m320.64 330.43c-1.3459-0.89095-10.909-9.9995-21.251-20.241s-20.041-19.082-21.553-19.644c-3.8783-1.4436-8.6956 0.43439-18.15 7.0756-19.586 13.758-44.969 21.799-73.213 23.194-55.134 2.7235-111.35-24.082-140.23-66.866-4.9819-7.3809-12.887-23.062-14.091-27.952l-0.64751-2.6294 7.5787-0.71018c4.1683-0.3906 11.129-0.50468 15.467-0.25351 9.6515 0.55872 11.207 1.5773 18.889 12.373 24.071 33.826 63.426 54.716 103.08 54.716 25.926 0 50.484-7.7841 72.843-23.09 9.9118-6.7849 25.115-21.964 32.164-32.113 3.2912-4.7386 7.003-8.8769 8.805-9.8167 3.7634-1.9627 15.502-2.7895 25.845-1.8203 7.1105 0.66631 7.4989 0.82597 6.9208 2.8447-1.2837 4.4828-9.5545 20.296-14.789 28.275-3.0026 4.5771-5.4593 9.1643-5.4593 10.194 0 3.7706 3.1394 7.555 19.943 24.042 9.4319 9.2537 18.156 18.136 19.387 19.739 3.5501 4.6231 2.9819 8.6898-1.9686 14.089-8.7513 9.5447-14.395 12.022-19.574 8.5938z" fill="#eec043"/><path transform="scale(.26458)" d="m2.2694 124.21c-1e-7 22.103 0 44.207 0 66.31 4.2436 0.92537 14.478 3.0691 11.791-4.9485 0.63357-10.289-1.8067-22.146 4.558-31.065 4.6457-4.2088 12.844-2.9544 15.402 3.0271 5.292 10.372 1.1906 23.119 3.5877 33.687 5.5778-0.0846 14.325 2.059 11.586-6.638-0.58722-13.166 1.8076-28.29-6.464-39.619-7.1603-8.4776-19.812-4.9531-27.934 0.0522-0.80663-7.0945 0.6874-14.887-0.94138-21.505-3.694 0.50674-8.4026-0.97908-11.586 0.69975z" fill="#ec7210"/><path transform="scale(.26458)" d="m105.54 139.87c-3.7613 0.37969-7.8062 2.5939-8.6676 6.2881-3.0209-0.61032-5.2712-4.1368-8.687-4.732-11.397-4.9006-25.035 2.7611-28.046 14.511-4.2393 12.88 0.93602 31.058 15.277 34.738 7.8023 1.6274 15.519-1.9403 21.783-6.1373 0.77501 5.9763 8.8477 7.9386 13.361 5.9807v-50.649c-1.1313-1.62-3.4672 0.2053-5.02 0zm-20.335 11.963c11.972 0.91308 15.059 20.016 5.0684 25.624-7.5845 4.6978-18.59-1.5398-18.252-10.635-1.1702-8.0323 4.7596-15.601 13.183-14.989z" fill="#ec7210"/><path transform="scale(.26458)" d="m168.37 139.37c-4.1525 0.50214-8.4633 2.3265-10.802 5.9653-9.1846-6.175-23.303-7.7562-31.129 1.4633-12.765 12.543-8.3003 38.741 9.9299 43.425 7.6211 2.372 15.429-1.2992 21.29-5.712-0.35279 6.0091 0.12605 15.357-7.1831 17.438-9.1024 1.1833-17.834-2.9214-26.563-5.0336-3.1819 4.9814 3.2452 10.19 7.1753 12.891 10.74 8.4148 28.625 7.4886 35.991-4.9041 6.2909-10.175 2.8462-22.832 3.8423-34.087-0.53018-10.308 1.0423-21.067-1.2115-31.133-0.32331-0.38921-0.8873-0.37707-1.3396-0.31315zm-23.229 12.452c12.203-0.12927 16.325 18.031 7.2797 25.002-6.7359 5.5055-18.594 0.27843-18.876-8.6348-1.5754-7.5001 3.2594-16.454 11.596-16.367z" fill="#ec7210"/><path transform="scale(.26458)" d="m220 139.79c-0.0853 2.7739 1.0524 8.6904-3.1605 4.7513-10.337-7.4537-27.103-5.3065-32.749 6.9453-6.4815 13.174-2.8436 33.517 12.377 38.716 8.2385 2.8757 16.718-1.1635 23.447-5.6521-0.61237 6.7233-1.9402 17.16-10.74 17.426-8.6798 0.46385-16.682-4.4213-25.133-4.7958-1.8902 3.9267 2.8969 7.9857 5.1708 10.8 12.063 13.124 37.594 8.0208 42.238-9.6651 3.5951-15.691 1.7544-32.055 1.6991-48.012 0.37957-5.071-2.3208-10.831-8.138-10.562-1.5906 0.1827-3.84-1.523-5.0123 0.0483zm-13.506 12.029c13.505-0.18532 17.143 23.478 3.6109 26.625-7.509 2.5667-15.324-3.6796-15.344-11.44-1.0384-7.2293 3.8849-15.253 11.733-15.186z" fill="#ec7210"/><path transform="scale(.26458)" d="m244.75 124.21c0.42762 21.774-0.86872 43.663 0.72488 65.373 1.6497 3.3302 6.3181-0.81863 9.0878-0.23441 4.335-1.307 2.0482-8.1988 2.989-12.13 0.65382-17.661 0.4225-35.339 0.47421-53.008-3.5312-1.1527-9.7339-1.1538-13.276 0z" fill="#ec7210"/><path transform="scale(.26458)" d="m290.77 139.9c-15.561 0.24816-27.871 16.93-23.088 31.852 3.55 15.705 23.808 24.426 37.325 15.253 3.5643-2.7016 8.954-6.6798 8.2327-11.619-4.8895-0.82555-10.262 2.1955-15.317 2.5245-6.3798 2.1748-14.66 0.0329-17.088-6.839-0.0344-2.6951 4.8624-0.9221 6.5295-1.5733 9.5254-0.11261 19.052-0.0348 28.578-0.0582 0.95147-5.4497-0.65402-12.174-3.0735-17.527-4.0654-8.0328-13.263-12.577-22.098-12.014zm1.1057 11.735c5.3425-0.0406 9.738 4.5407 10.904 9.149-7.4012 0.23241-15.211 0.90184-22.396-0.24742 1.5756-4.8792 6.0741-9.0118 11.492-8.9015z" fill="#ec7210"/><path transform="scale(.26458)" d="m342.77 140.08c-9.6121-0.4742-21.383 8.3644-17.658 18.806 3.8445 10.306 17.698 9.1158 24.286 16.568 0.68896 4.482-5.5405 5.2682-8.569 3.6708-5.4144-0.81039-10.879-4.8644-16.33-3.694-2.0308 3.7346 3.1525 7.2055 5.4569 9.5761 8.5753 7.8122 24.934 9.57 31.757-1.3705 3.8677-5.8263 2.7624-14.849-4.2874-17.668-5.8666-3.6429-15.007-4.1894-18.246-10.974 0.98418-5.3905 8.5194-3.5626 10.823-0.0251 3.8071 2.2717 9.3467 2.2658 13.336 0.77708 0.67246-5.1883-4.6522-9.4621-8.1283-12.733-3.4667-2.7358-8.2162-2.9687-12.441-2.9343z" fill="#ec7210"/></g></svg>
